solid OpenSCAD_Model
  facet normal 0 0 -1
    outer loop
      vertex 9 4 0
      vertex 7 1 0
      vertex 2.29999 0 0
    endloop
  endfacet
  facet normal 0 0 -1
    outer loop
      vertex -2.29999 0 0
      vertex -7 1 0
      vertex -9 4 0
    endloop
  endfacet
  facet normal 0 0 -1
    outer loop
      vertex 1.39999 -8 0
      vertex -1.39999 -8 0
      vertex -2.15294 0 0
    endloop
  endfacet
  facet normal 0 0 -1
    outer loop
      vertex 2.15294 0 0
      vertex 9 4 0
      vertex 2.29999 0 0
    endloop
  endfacet
  facet normal 0 0 -1
    outer loop
      vertex 2.15294 0 0
      vertex -9 4 0
      vertex 9 4 0
    endloop
  endfacet
  facet normal 0 0 -1
    outer loop
      vertex 1.39999 -8 0
      vertex -2.15294 0 0
      vertex 2.15294 0 0
    endloop
  endfacet
  facet normal 0 0 -1
    outer loop
      vertex -2.29999 0 0
      vertex -9 4 0
      vertex -2.15294 0 0
    endloop
  endfacet
  facet normal 0 0 -1
    outer loop
      vertex -2.15294 0 0
      vertex -9 4 0
      vertex 2.15294 0 0
    endloop
  endfacet
  facet normal 0 0 -1
    outer loop
      vertex 0 -10 0
      vertex -1.39999 -8 0
      vertex 1.39999 -8 0
    endloop
  endfacet
  facet normal 0 0 1
    outer loop
      vertex 2.29999 0 0.75
      vertex 7 1 0.75
      vertex 9 4 0.75
    endloop
  endfacet
  facet normal 0 0 1
    outer loop
      vertex -9 4 0.75
      vertex -7 1 0.75
      vertex -2.29999 0 0.75
    endloop
  endfacet
  facet normal 0 0 1
    outer loop
      vertex -2.15294 0 0.75
      vertex -1.39999 -8 0.75
      vertex 1.39999 -8 0.75
    endloop
  endfacet
  facet normal 0 -0 1
    outer loop
      vertex 2.29999 0 0.75
      vertex 9 4 0.75
      vertex 2.15294 0 0.75
    endloop
  endfacet
  facet normal 0 0 1
    outer loop
      vertex 9 4 0.75
      vertex -9 4 0.75
      vertex 2.15294 0 0.75
    endloop
  endfacet
  facet normal 0 0 1
    outer loop
      vertex 2.15294 0 0.75
      vertex -2.15294 0 0.75
      vertex 1.39999 -8 0.75
    endloop
  endfacet
  facet normal 0 0 1
    outer loop
      vertex -2.15294 0 0.75
      vertex -9 4 0.75
      vertex -2.29999 0 0.75
    endloop
  endfacet
  facet normal 0 0 1
    outer loop
      vertex 2.15294 0 0.75
      vertex -9 4 0.75
      vertex -2.15294 0 0.75
    endloop
  endfacet
  facet normal 0 0 1
    outer loop
      vertex 1.39999 -8 0.75
      vertex -1.39999 -8 0.75
      vertex 0 -10 0.75
    endloop
  endfacet
  facet normal 0.9956 -0.0937046 0
    outer loop
      vertex 2.15294 0 0
      vertex 1.39999 -8 0.75
      vertex 1.39999 -8 0
    endloop
  endfacet
  facet normal 0.9956 -0.0937046 0
    outer loop
      vertex 2.15294 0 0
      vertex 2.15294 0 0.75
      vertex 1.39999 -8 0.75
    endloop
  endfacet
  facet normal 0 -1 0
    outer loop
      vertex 2.29999 0 0
      vertex 2.15294 0 0.75
      vertex 2.15294 0 0
    endloop
  endfacet
  facet normal 0 -1 0
    outer loop
      vertex 2.29999 0 0
      vertex 2.29999 0 0.75
      vertex 2.15294 0 0.75
    endloop
  endfacet
  facet normal 0.208107 -0.978106 0
    outer loop
      vertex 7 1 0
      vertex 2.29999 0 0.75
      vertex 2.29999 0 0
    endloop
  endfacet
  facet normal 0.208107 -0.978106 0
    outer loop
      vertex 7 1 0
      vertex 7 1 0.75
      vertex 2.29999 0 0.75
    endloop
  endfacet
  facet normal 0.83205 -0.5547 0
    outer loop
      vertex 9 4 0
      vertex 7 1 0.75
      vertex 7 1 0
    endloop
  endfacet
  facet normal 0.83205 -0.5547 0
    outer loop
      vertex 9 4 0
      vertex 9 4 0.75
      vertex 7 1 0.75
    endloop
  endfacet
  facet normal 0 1 0
    outer loop
      vertex -9 4 0
      vertex 9 4 0.75
      vertex 9 4 0
    endloop
  endfacet
  facet normal 0 1 0
    outer loop
      vertex -9 4 0
      vertex -9 4 0.75
      vertex 9 4 0.75
    endloop
  endfacet
  facet normal -0.83205 -0.5547 0
    outer loop
      vertex -7 1 0
      vertex -9 4 0.75
      vertex -9 4 0
    endloop
  endfacet
  facet normal -0.83205 -0.5547 0
    outer loop
      vertex -7 1 0
      vertex -7 1 0.75
      vertex -9 4 0.75
    endloop
  endfacet
  facet normal -0.208107 -0.978106 0
    outer loop
      vertex -2.29999 0 0
      vertex -7 1 0.75
      vertex -7 1 0
    endloop
  endfacet
  facet normal -0.208107 -0.978106 0
    outer loop
      vertex -2.29999 0 0
      vertex -2.29999 0 0.75
      vertex -7 1 0.75
    endloop
  endfacet
  facet normal 0 -1 0
    outer loop
      vertex -2.15294 0 0
      vertex -2.29999 0 0.75
      vertex -2.29999 0 0
    endloop
  endfacet
  facet normal 0 -1 0
    outer loop
      vertex -2.15294 0 0
      vertex -2.15294 0 0.75
      vertex -2.29999 0 0.75
    endloop
  endfacet
  facet normal -0.9956 -0.0937046 0
    outer loop
      vertex -1.39999 -8 0
      vertex -2.15294 0 0.75
      vertex -2.15294 0 0
    endloop
  endfacet
  facet normal -0.9956 -0.0937046 0
    outer loop
      vertex -1.39999 -8 0
      vertex -1.39999 -8 0.75
      vertex -2.15294 0 0.75
    endloop
  endfacet
  facet normal -0.819234 -0.57346 0
    outer loop
      vertex 0 -10 0
      vertex -1.39999 -8 0.75
      vertex -1.39999 -8 0
    endloop
  endfacet
  facet normal -0.819234 -0.57346 0
    outer loop
      vertex 0 -10 0
      vertex 0 -10 0.75
      vertex -1.39999 -8 0.75
    endloop
  endfacet
  facet normal 0.819234 -0.57346 0
    outer loop
      vertex 1.39999 -8 0
      vertex 0 -10 0.75
      vertex 0 -10 0
    endloop
  endfacet
  facet normal 0.819234 -0.57346 0
    outer loop
      vertex 1.39999 -8 0
      vertex 1.39999 -8 0.75
      vertex 0 -10 0.75
    endloop
  endfacet
endsolid OpenSCAD_Model
